<svg width="14" height="14" fill="none" xmlns="http://www.w3.org/2000/svg"><path d="M12.6 1.4h-.7V.7c0-.42-.28-.7-.7-.7-.42 0-.7.28-.7.7v.7h-7V.7c0-.42-.28-.7-.7-.7-.42 0-.7.28-.7.7v.7H.7c-.35 0-.7.28-.7.7v9.8c0 .42.35.7.7.7h4.27c-.49-.84-.77-1.82-.77-2.8 0-3.08 2.52-5.6 5.6-5.6 1.33 0 2.52.49 3.5 1.26V2.1c0-.35-.35-.7-.7-.7Z" fill="#BA2F1D"/><path d="M9.8 5.6c-2.31 0-4.2 1.89-4.2 4.2 0 2.31 1.89 4.2 4.2 4.2 2.31 0 4.2-1.89 4.2-4.2 0-2.31-1.89-4.2-4.2-4.2Zm1.4 4.9H9.8c-.42 0-.7-.28-.7-.7V7.7c0-.42.28-.7.7-.7.42 0 .7.28.7.7v1.4h.7c.42 0 .7.28.7.7 0 .42-.28.7-.7.7Z" fill="#BA2F1D"/></svg>