<?xml version="1.0" encoding="UTF-8" standalone="no"?>
<svg
   version="1.1"
   width="512"
   height="512"
   x="0"
   y="0"
   viewBox="0 0 64 64"
   style="enable-background:new 0 0 512 512"
   xml:space="preserve"
   class=""
   id="svg5"
   sodipodi:docname="github-icon.svg"
   inkscape:version="1.3 (0e150ed6c4, 2023-07-21)"
   xmlns:inkscape="http://www.inkscape.org/namespaces/inkscape"
   xmlns:sodipodi="http://sodipodi.sourceforge.net/DTD/sodipodi-0.dtd"
   xmlns="http://www.w3.org/2000/svg"
   xmlns:svg="http://www.w3.org/2000/svg"><defs
     id="defs5" /><sodipodi:namedview
     id="namedview5"
     pagecolor="#ffffff"
     bordercolor="#000000"
     borderopacity="0.25"
     inkscape:showpageshadow="2"
     inkscape:pageopacity="0.0"
     inkscape:pagecheckerboard="0"
     inkscape:deskcolor="#d1d1d1"
     inkscape:zoom="1.6035156"
     inkscape:cx="255.68819"
     inkscape:cy="256"
     inkscape:window-width="1920"
     inkscape:window-height="1017"
     inkscape:window-x="-8"
     inkscape:window-y="32"
     inkscape:window-maximized="1"
     inkscape:current-layer="svg5" /><g
     id="g5"><g
       fill-rule="evenodd"
       id="g4"><path
         id="path1"
         d="M 16 0 A 16 16 0 0 0 0 16 L 0 48 A 16 16 0 0 0 16 64 L 48 64 A 16 16 0 0 0 64 48 L 64 16 A 16 16 0 0 0 48 0 L 16 0 z M 31.963379 9.9702148 A 22.02 22.02 0 0 1 40.7771 52.177002 A 1.984 1.984 0 0 1 38.016113 50.351074 C 38.000113 47.990077 38 45 38 45 A 6 6 0 0 0 36.24292 40.75708 C 36.117587 40.632414 35.987694 40.513545 35.853027 40.400879 A 0.227 0.227 0 0 1 35.998047 40.000977 L 36 40 A 10 10 0 0 0 46 30 A 9.956 9.956 0 0 0 43.989014 23.983887 A 9.656 9.656 0 0 0 43.893066 19.375977 L 43.7229 18.740967 A 1 1 0 0 0 42.498047 18.033936 L 41.863037 18.204102 A 9.654 9.654 0 0 0 38.062988 20.212891 A 10.037 10.037 0 0 0 36 20 L 28 20 A 10.037 10.037 0 0 0 25.937012 20.212891 A 9.654 9.654 0 0 0 22.136963 18.204102 L 21.501953 18.033936 A 1 1 0 0 0 20.278076 18.740967 L 20.10791 19.375977 A 9.656 9.656 0 0 0 20.011963 23.983887 A 9.956 9.956 0 0 0 18 30 A 10 10 0 0 0 28 40 L 28.001953 40 A 0.227 0.227 0 0 1 28.145996 40.399902 C 28.012663 40.513236 27.88308 40.632414 27.75708 40.75708 A 6 6 0 0 0 26.083984 44 L 25 44 A 6 6 0 0 1 20.199951 41.600098 A 3.998 3.998 0 0 0 17 40 A 1 1 0 0 0 17 42 A 1.766 1.766 0 0 1 18.513916 42.856934 L 18.668945 43.115967 A 8 8 0 0 0 25.530029 47 L 26 47 L 26 50.351074 A 2 2 0 0 1 23.217041 52.190918 A 22.02 22.02 0 0 1 31.963379 9.9702148 z " /></g></g></svg>
