<svg xmlns="http://www.w3.org/2000/svg" width="24" height="24" fill="none"><g clip-path="url(#a)"><path fill="#E9E9E9" fill-rule="evenodd" d="M6 0a6 6 0 0 0-6 6v12a6 6 0 0 0 6 6h12a6 6 0 0 0 6-6V6a6 6 0 0 0-6-6H6Zm11.326 6.302a1.125 1.125 0 0 1 1.12 1.296l-1.663 10.815a1.125 1.125 0 0 1-1.78.734l-4.905-3.614a.75.75 0 0 1-.07-1.15l4.577-4.323a.188.188 0 0 0-.23-.293l-6.053 3.947a2.251 2.251 0 0 1-1.775.298l-2.839-.71a.75.75 0 0 1-.105-1.42l13.302-5.495c.134-.055.277-.084.421-.085Z" clip-rule="evenodd"/></g><defs><clipPath id="a"><path fill="#fff" d="M0 0h24v24H0z"/></clipPath></defs></svg>