<?xml version="1.0" encoding="UTF-8" standalone="no"?>
<svg
   version="1.1"
   width="512"
   height="512"
   x="0"
   y="0"
   viewBox="0 0 64 64"
   style="enable-background:new 0 0 512 512"
   xml:space="preserve"
   class=""
   id="svg5"
   sodipodi:docname="telegram-default.svg"
   inkscape:version="1.3 (0e150ed6c4, 2023-07-21)"
   xmlns:inkscape="http://www.inkscape.org/namespaces/inkscape"
   xmlns:sodipodi="http://sodipodi.sourceforge.net/DTD/sodipodi-0.dtd"
   xmlns="http://www.w3.org/2000/svg"
   xmlns:svg="http://www.w3.org/2000/svg"><defs
     id="defs5" /><sodipodi:namedview
     id="namedview5"
     pagecolor="#ffffff"
     bordercolor="#000000"
     borderopacity="0.25"
     inkscape:showpageshadow="2"
     inkscape:pageopacity="0.0"
     inkscape:pagecheckerboard="0"
     inkscape:deskcolor="#d1d1d1"
     inkscape:zoom="1.1338568"
     inkscape:cx="178.15301"
     inkscape:cy="295.01081"
     inkscape:window-width="1920"
     inkscape:window-height="1017"
     inkscape:window-x="-8"
     inkscape:window-y="32"
     inkscape:window-maximized="1"
     inkscape:current-layer="g4" /><g
     id="g5"><g
       fill-rule="evenodd"
       id="g4"><path
         id="path1"
         style="enable-background:new 0 0 512 512;fill:#ffffff"
         class=""
         d="M 16 0 A 16 16 0 0 0 0 16 L 0 48 A 16 16 0 0 0 16 64 L 48 64 A 16 16 0 0 0 64 48 L 64 16 A 16 16 0 0 0 48 0 L 16 0 z M 46.203857 16.805176 A 3 3 0 0 1 49.189941 20.260986 L 44.75415 49.100098 A 3 3 0 0 1 40.009033 51.059082 L 26.927002 41.420166 A 2 2 0 0 1 26.740967 38.355957 L 38.947998 26.827148 A 0.5 0.5 0 0 0 38.331055 26.045166 L 22.193115 36.570068 A 6 6 0 0 1 17.459961 37.36499 L 9.8881836 35.471924 A 2 2 0 0 1 9.6091309 31.683105 L 45.080078 17.031982 A 3 3 0 0 1 46.203857 16.805176 z " /><path
         id="path2"
         style="enable-background:new 0 0 512 512;fill:#ffffff"
         class=""
         d="M 16 0 A 16 16 0 0 0 0 16 L 0 48 A 30 30 0 0 1 30 18 L 42.736572 18 L 45.080078 17.031982 A 3 3 0 0 1 48.555908 17.935303 A 9 9 0 0 0 48.919922 0.045898438 C 48.613922 0.028898455 48.311 9.2518493e-18 48 0 L 16 0 z " /><path
         id="path3"
         style="enable-background:new 0 0 512 512;fill:#ffffff"
         class=""
         d="M 64 16 A 16 16 0 0 1 48 32 A 16 16 0 0 0 47.376221 32.052734 L 44.753906 49.100098 A 3 3 0 0 1 40.009033 51.059082 L 32.271484 45.35791 A 16 16 0 1 0 64 48 L 64 16 z " /></g></g></svg>
