<svg width="24" height="24" viewBox="0 0 24 24" fill="none" xmlns="http://www.w3.org/2000/svg">
<g clip-path="url(#clip0_80_97)">
<path fill-rule="evenodd" clip-rule="evenodd" d="M6 0C4.4087 0 2.88258 0.632141 1.75736 1.75736C0.632141 2.88258 0 4.4087 0 6L0 18C0 19.5913 0.632141 21.1174 1.75736 22.2426C2.88258 23.3679 4.4087 24 6 24H18C19.5913 24 21.1174 23.3679 22.2426 22.2426C23.3679 21.1174 24 19.5913 24 18V6C24 4.4087 23.3679 2.88258 22.2426 1.75736C21.1174 0.632141 19.5913 0 18 0L6 0ZM17.3264 6.30194C17.4893 6.30081 17.6504 6.33504 17.7988 6.40228C17.9471 6.46951 18.0791 6.56815 18.1855 6.69138C18.292 6.8146 18.3705 6.95947 18.4155 7.11598C18.4605 7.27249 18.471 7.43691 18.4462 7.59787L16.7828 18.4125C16.7534 18.6039 16.6751 18.7844 16.5555 18.9366C16.4359 19.0888 16.2791 19.2076 16.1002 19.2814C15.9213 19.3553 15.7263 19.3818 15.5342 19.3582C15.342 19.3347 15.1592 19.262 15.0034 19.1472L10.0976 15.5326C10.0092 15.4674 9.93626 15.3836 9.8838 15.2872C9.83135 15.1907 9.80071 15.0839 9.79406 14.9743C9.78741 14.8647 9.8049 14.755 9.84529 14.6529C9.88569 14.5508 9.94802 14.4589 10.0279 14.3835L14.6055 10.0602C14.6396 10.028 14.6603 9.98426 14.6638 9.93754C14.6672 9.89082 14.653 9.84451 14.624 9.80774C14.5949 9.77096 14.5532 9.74637 14.507 9.73882C14.4607 9.73127 14.4134 9.7413 14.3741 9.76694L8.32242 13.7138C8.06301 13.8829 7.77147 13.9967 7.46606 14.048C7.16064 14.0993 6.84792 14.087 6.54749 14.0119L3.70807 13.302C3.55492 13.2637 3.41774 13.1781 3.31608 13.0574C3.21442 12.9366 3.15344 12.7868 3.14185 12.6294C3.13025 12.472 3.16863 12.3149 3.2515 12.1806C3.33438 12.0462 3.45753 11.9414 3.60342 11.8812L16.905 6.38699C17.0387 6.33182 17.1818 6.30294 17.3264 6.30194Z" fill="#E9E9E9"/>
</g>
<defs>
<clipPath id="clip0_80_97">
<rect width="24" height="24" fill="white"/>
</clipPath>
</defs>
</svg>
