<svg width="24" height="24" fill="none" xmlns="http://www.w3.org/2000/svg"><g clip-path="url(#a)"><path fill-rule="evenodd" clip-rule="evenodd" d="M6 0a6 6 0 0 0-6 6v12a6 6 0 0 0 6 6h12a6 6 0 0 0 6-6V6a6 6 0 0 0-6-6H6Zm5.986 3.739a8.258 8.258 0 0 1 3.305 15.827.744.744 0 0 1-1.035-.684c-.006-.886-.006-2.007-.006-2.007a2.25 2.25 0 0 0-.805-1.725.085.085 0 0 1-.025-.094.085.085 0 0 1 .08-.056 3.75 3.75 0 0 0 2.996-6.006 3.622 3.622 0 0 0-.036-1.728l-.064-.238a.377.377 0 0 0-.46-.265l-.237.064a3.621 3.621 0 0 0-1.425.753 3.764 3.764 0 0 0-.774-.08h-3c-.26 0-.52.027-.774.08a3.62 3.62 0 0 0-1.425-.753l-.238-.064a.375.375 0 0 0-.459.265l-.064.238a3.621 3.621 0 0 0-.036 1.728A3.75 3.75 0 0 0 10.5 15a.084.084 0 0 1 .08.056.085.085 0 0 1-.025.094 2.25 2.25 0 0 0-.773 1.35h-.407a2.25 2.25 0 0 1-1.8-.9 1.5 1.5 0 0 0-1.2-.6.375.375 0 1 0 0 .75.662.662 0 0 1 .568.321L7 16.17a3 3 0 0 0 2.573 1.456h.176v1.257a.75.75 0 0 1-1.044.69 8.257 8.257 0 0 1 3.28-15.833Z" fill="#E9E9E9"/></g><defs><clipPath id="a"><path fill="#fff" d="M0 0h24v24H0z"/></clipPath></defs></svg>