<svg width="24" height="20" fill="none" xmlns="http://www.w3.org/2000/svg"><path d="M12 14.216a.701.701 0 0 1-.42-.14L4.218 8.58V19.14H19.78V8.579l-7.36 5.497a.702.702 0 0 1-.421.14ZM2.812 7.53 0 5.428V17.03c0 1.163.946 2.11 2.11 2.11h.703V7.529Zm18.375 0V19.14h.704c1.163 0 2.109-.947 2.109-2.11V5.428l-2.813 2.1ZM20.72.859H3.28L12 7.365 20.72.859Z" fill="#E9E9E9"/><path d="M22.797 1.064 12.42 8.806a.702.702 0 0 1-.84 0L1.202 1.064A2.112 2.112 0 0 0 0 2.97v.79c.102.02.199.063.282.125L12 12.636l11.718-8.752A.7.7 0 0 1 24 3.758v-.79c0-.838-.492-1.564-1.203-1.904Z" fill="#E9E9E9"/></svg>