<svg xmlns="http://www.w3.org/2000/svg" width="20" height="20" fill="none"><path fill="#8B9192" d="m19.526 17.204-4.598-4.662a8.232 8.232 0 0 0 1.235-4.35C16.163 3.667 12.545 0 8.08 0 3.618 0 0 3.667 0 8.192s3.618 8.192 8.081 8.192a7.97 7.97 0 0 0 4.616-1.469l4.544 4.606a1.611 1.611 0 0 0 1.142.479 1.594 1.594 0 0 0 1.144-.479 1.65 1.65 0 0 0 0-2.317ZM8.081 13.73c-3.016 0-5.462-2.48-5.462-5.538 0-3.058 2.446-5.537 5.462-5.537 3.017 0 5.463 2.48 5.463 5.537 0 3.059-2.446 5.538-5.463 5.538Z"/></svg>